PathFileType  4	(X/Y/Z) C:\Users\antoi\Documents\MyRepositories\mobilecap\ResultsAnalysis
DataRate	CameraRate	NumFrames	NumMarkers	Units	OrigDataRate	OrigDataStartFrame	OrigNumFrames
100.0	100.0	4	51	mm	100.0	114	151
Frame#	Time	r_knee			r_shank_antsup			r_ankle			r_calc			r_5meta			r_toe			L_knee			L_shank_antsup			L_ankle			L_calc			L_5meta			L_toe			r_sh2			r_sh3			r_sh4			L_sh2			L_sh3			r_thigh1			r_thigh2			r_thigh3			r_thigh4			r_thigh5			L_thigh1			L_thigh2			L_thigh3			L_thigh4			r.ASIS			r.PSIS			L.ASIS			L.PSIS			C7			R_Shoulder			L_Shoulder			R_Sternum			L_Sternum			R_humerus			R_elbow_med			R_elbow_lat			R_forearm			R_wrist_radius			R_wrist_ulna			L_humerus			L_elbow_med			L_elbow_lat			L_forearm			L_wrist_radius			L_wrist_ulna			R_HJC			L_HJC			R_HJC_reg			L_HJC_reg			
		X1	Y1	Z1	X2	Y2	Z2	X3	Y3	Z3	X4	Y4	Z4	X5	Y5	Z5	X6	Y6	Z6	X7	Y7	Z7	X8	Y8	Z8	X9	Y9	Z9	X10	Y10	Z10	X11	Y11	Z11	X12	Y12	Z12	X13	Y13	Z13	X14	Y14	Z14	X15	Y15	Z15	X16	Y16	Z16	X17	Y17	Z17	X18	Y18	Z18	X19	Y19	Z19	X20	Y20	Z20	X21	Y21	Z21	X22	Y22	Z22	X23	Y23	Z23	X24	Y24	Z24	X25	Y25	Z25	X26	Y26	Z26	X27	Y27	Z27	X28	Y28	Z28	X29	Y29	Z29	X30	Y30	Z30	X31	Y31	Z31	X32	Y32	Z32	X33	Y33	Z33	X34	Y34	Z34	X35	Y35	Z35	X36	Y36	Z36	X37	Y37	Z37	X38	Y38	Z38	X39	Y39	Z39	X40	Y40	Z40	X41	Y41	Z41	X42	Y42	Z42	X43	Y43	Z43	X44	Y44	Z44	X45	Y45	Z45	X46	Y46	Z46	X47	Y47	Z47	X48	Y48	Z48	X49	Y49	Z49	X50	Y50	Z50	X51	Y51	Z51	

114	1.13000000	1309.75913	614.47959	-40.96609	1370.77918	480.55271	-50.04621	1409.58477	111.18698	-66.95524	1359.95797	71.96280	-127.67256	1558.33033	94.39612	-46.04001	1584.30800	138.55445	-94.97061	1026.80845	590.68317	-300.79960	1023.88981	387.23327	-258.52998	874.64117	112.45828	-228.83928	815.63833	83.88648	-161.27719	1011.43234	30.99374	-263.14588	1053.96469	61.13828	-204.87442	1396.09586	370.57077	-59.53428	1309.13147	460.05339	-7.26626	1332.15627	348.97645	-9.49519	961.96049	403.79252	-317.16538	925.63348	295.54326	-289.17724	1245.41028	894.18506	-2.88812	1296.81344	796.36860	-16.22978	1251.85110	747.23716	-0.50943	1144.14915	846.66166	-14.92171	1195.96077	740.08366	-16.39128	1156.93606	869.28769	-335.02976	1127.75224	739.21701	-318.16693	1049.93993	892.52018	-356.39796	1022.68797	760.22672	-345.44087	1204.24875	1163.19030	-46.40287	1016.08353	1185.84314	-127.88214	1197.17109	1149.93052	-323.54782	1015.42347	1189.31397	-221.39889	1083.52382	1679.39711	-197.75602	1136.93676	1631.70347	-20.24635	1148.64945	1639.32226	-371.13013	1218.01710	1586.75675	-162.02869	1221.50911	1586.13479	-220.20692	1079.08259	1366.75911	50.62287	977.30402	1267.16815	6.91439	984.72070	1288.86040	76.37941	1067.44555	1089.62008	108.74891	1096.82530	997.73803	106.92164	1065.80765	997.37351	130.47087	1153.20721	1344.18629	-428.43800	1060.14673	1266.82510	-388.70379	1087.09246	1263.95385	-461.60096	1205.06701	1091.72699	-467.87682	1248.88705	1025.34301	-453.24413	1226.28266	1019.18582	-479.44132	1128.63419	1064.66944	-78.67847	1115.56903	1061.07096	-275.68920	1136.93659	1064.99829	-88.96177	1135.64479	1071.79325	-272.01444	
115	1.14000000	1317.87209	612.09249	-42.18214	1381.05103	479.27366	-51.88973	1426.92398	110.72449	-72.73877	1378.71873	71.57361	-134.52658	1575.76443	96.01723	-50.20771	1601.49032	141.25192	-98.24055	1033.05530	590.32857	-300.83249	1027.78766	386.85463	-258.70585	875.42830	113.61466	-229.14230	816.17003	85.43152	-161.56482	1011.50134	30.85166	-263.22164	1054.20734	60.81838	-204.92498	1408.41374	369.85399	-62.29205	1319.04402	457.30311	-10.41158	1343.95884	346.55126	-13.67420	966.08183	404.15602	-317.38538	928.41720	296.26775	-289.41209	1254.71835	891.85834	-2.69150	1305.65980	793.82169	-16.06020	1260.28540	744.88679	-1.57872	1153.28530	845.21520	-16.50872	1204.30140	738.17080	-18.10194	1165.77238	867.78257	-335.19116	1135.42918	737.93433	-318.38190	1058.89857	891.97010	-356.69131	1030.56393	759.86036	-345.45595	1215.39889	1161.53942	-46.04354	1027.32602	1184.45883	-127.74663	1208.48733	1148.25217	-323.25627	1026.72617	1188.01846	-221.19803	1095.32402	1678.16374	-197.14952	1148.36722	1629.92806	-19.77196	1160.37137	1638.08151	-370.49369	1229.60587	1585.16786	-161.45942	1233.07667	1584.60764	-219.65837	1090.63839	1364.91108	50.86040	988.87718	1265.23073	7.11008	996.27254	1286.87106	76.55446	1079.22981	1087.70078	108.78633	1108.83352	995.95936	106.87238	1077.67778	995.46101	130.43750	1164.49421	1342.94120	-428.05564	1071.36237	1265.67068	-388.29851	1098.32579	1262.83160	-461.18374	1215.67043	1090.20426	-467.60874	1259.12873	1023.55564	-453.11273	1236.56897	1017.57209	-479.27377	1139.62306	1063.13534	-78.41266	1126.69982	1059.55276	-275.43314	1148.01834	1063.28419	-88.74285	1146.84332	1070.25868	-271.83225	
116	1.15000000	1326.44348	609.90227	-43.64765	1391.23227	477.77035	-54.05351	1441.85148	110.00805	-78.47844	1394.88645	71.13669	-141.35332	1590.57489	96.60427	-54.14411	1616.37750	142.61113	-101.35645	1039.77175	589.93661	-300.82477	1032.05351	386.42239	-258.82356	876.36234	114.92360	-229.40897	816.79644	87.23188	-161.81076	1011.58495	30.75934	-263.26349	1054.45563	60.43492	-204.92576	1420.12347	368.86097	-65.28698	1328.93017	454.76429	-13.78102	1355.14619	344.23635	-17.93772	970.60074	404.54754	-317.52743	931.50952	297.03269	-289.58987	1264.15877	889.57877	-2.38517	1314.77070	791.41063	-15.81469	1269.01659	742.60914	-2.79593	1162.71098	843.75001	-18.34965	1213.07898	736.40483	-20.09758	1174.86787	866.30323	-335.27995	1143.47398	736.67379	-318.53546	1068.14683	891.40152	-356.89266	1038.79550	759.47838	-345.38294	1226.66940	1159.90869	-45.68933	1038.67686	1183.15822	-127.56727	1219.89398	1146.60428	-322.97915	1038.14995	1186.76676	-220.97878	1107.21139	1676.98063	-196.47456	1159.85233	1628.21112	-19.21362	1172.19475	1636.90740	-369.79956	1241.27293	1583.63132	-160.81563	1244.73462	1583.13466	-219.03285	1102.22810	1363.09232	51.12528	1000.54269	1263.30351	7.27579	1007.88417	1284.90462	76.71798	1091.08368	1085.80628	108.84655	1120.94059	994.22864	106.87114	1089.65307	993.58726	130.44072	1175.87166	1341.75873	-427.61703	1082.66755	1264.59353	-387.82546	1109.65785	1261.78192	-460.68883	1226.17954	1088.64813	-467.32803	1269.24939	1021.71662	-452.96799	1246.69274	1015.90385	-479.11136	1150.71371	1061.64231	-78.13894	1137.90428	1058.07775	-275.16733	1159.14592	1061.66841	-88.49831	1158.11294	1068.74296	-271.63378	
117	1.16000000	1335.59458	607.92478	-45.36528	1401.41610	476.04243	-56.52528	1454.38083	108.92348	-84.07083	1408.40641	70.47567	-147.95636	1602.84184	96.10264	-57.94153	1628.98650	142.55689	-104.48830	1046.95715	589.49243	-300.79516	1036.68998	385.93937	-258.88928	877.44360	116.39149	-229.63919	817.52236	89.30049	-162.00890	1011.68183	30.72071	-263.26572	1054.69351	59.99667	-204.87286	1431.22117	367.51342	-68.51171	1338.84232	452.42194	-17.29393	1365.75246	342.00426	-22.20180	975.50814	404.95705	-317.59302	934.92573	297.85279	-289.71652	1273.83922	887.37469	-1.97194	1324.25339	789.16100	-15.58948	1278.16927	740.43274	-4.12107	1172.51423	842.26624	-20.32348	1222.37459	734.80669	-22.28231	1184.22257	864.85622	-335.30135	1151.90432	735.44248	-318.64303	1077.69227	890.81414	-356.99077	1047.38478	759.06832	-345.21098	1238.07333	1158.29979	-45.35652	1050.15231	1181.94667	-127.35201	1231.39618	1144.99995	-322.73434	1049.70099	1185.56054	-220.74734	1119.18791	1675.84013	-195.71678	1171.40170	1626.56464	-18.56636	1184.11624	1635.81240	-369.04181	1253.00866	1582.13999	-160.09968	1256.48633	1581.72060	-218.32881	1113.85055	1361.31669	51.42030	1012.31007	1261.41201	7.39456	1019.55422	1282.99155	76.86702	1102.99499	1083.96470	108.92418	1133.10659	992.54698	106.91841	1101.73326	991.77947	130.47247	1187.35545	1340.65579	-427.11251	1094.06330	1263.61336	-387.28353	1121.08449	1260.82137	-460.12192	1236.58784	1087.07223	-467.04691	1279.26270	1019.86082	-452.80727	1256.67258	1014.20533	-478.95913	1161.92240	1060.19275	-77.87385	1149.19049	1056.65490	-274.90793	1170.33570	1060.16427	-88.23445	1169.45038	1067.25237	-271.42627	
